<?xml version="1.0" encoding="UTF-8" standalone="no"?>
<!DOCTYPE svg PUBLIC "-//W3C//DTD SVG 1.1//EN"
 "http://www.w3.org/Graphics/SVG/1.1/DTD/svg11.dtd">
<!-- Generated by graphviz version 2.38.0 (20140413.2041)
 -->
<!-- Title: %3 Pages: 1 -->
<svg width="282pt" height="315pt"
 viewBox="0.00 0.00 282.00 315.00" xmlns="http://www.w3.org/2000/svg" xmlns:xlink="http://www.w3.org/1999/xlink">
<g id="graph0" class="graph" transform="scale(1 1) rotate(0) translate(4 311)">
<title>%3</title>
<polygon fill="white" stroke="none" points="-4,4 -4,-311 278,-311 278,4 -4,4"/>
<g id="clust2" class="cluster"><title>cluster_2</title>
<polygon fill="none" stroke="blue" points="92,-8 92,-299 266,-299 266,-8 92,-8"/>
<text text-anchor="middle" x="179" y="-283.8" font-family="Fangsong" font-size="14.00" fill="red">四大定律</text>
</g>
<g id="clust1" class="cluster"><title>cluster_1</title>
<polygon fill="lightgrey" stroke="lightgrey" points="8,-8 8,-299 84,-299 84,-8 8,-8"/>
<text text-anchor="middle" x="46" y="-283.8" font-family="Fangsong" font-size="14.00" fill="red">四步法</text>
</g>
<!-- 提示 -->
<g id="node1" class="node"><title>提示</title>
<ellipse fill="white" stroke="white" cx="46" cy="-250" rx="29.795" ry="18"/>
<text text-anchor="middle" x="46" y="-246.3" font-family="Fangsong" font-size="14.00">提示</text>
</g>
<!-- 渴求 -->
<g id="node2" class="node"><title>渴求</title>
<ellipse fill="white" stroke="white" cx="46" cy="-178" rx="29.795" ry="18"/>
<text text-anchor="middle" x="46" y="-174.3" font-family="Fangsong" font-size="14.00">渴求</text>
</g>
<!-- 提示&#45;&gt;渴求 -->
<g id="edge1" class="edge"><title>提示&#45;&gt;渴求</title>
<path fill="none" stroke="black" d="M46,-231.697C46,-223.983 46,-214.712 46,-206.112"/>
<polygon fill="black" stroke="black" points="49.5001,-206.104 46,-196.104 42.5001,-206.104 49.5001,-206.104"/>
</g>
<!-- 反应 -->
<g id="node3" class="node"><title>反应</title>
<ellipse fill="white" stroke="white" cx="46" cy="-106" rx="29.795" ry="18"/>
<text text-anchor="middle" x="46" y="-102.3" font-family="Fangsong" font-size="14.00">反应</text>
</g>
<!-- 渴求&#45;&gt;反应 -->
<g id="edge2" class="edge"><title>渴求&#45;&gt;反应</title>
<path fill="none" stroke="black" d="M46,-159.697C46,-151.983 46,-142.712 46,-134.112"/>
<polygon fill="black" stroke="black" points="49.5001,-134.104 46,-124.104 42.5001,-134.104 49.5001,-134.104"/>
</g>
<!-- 奖励 -->
<g id="node4" class="node"><title>奖励</title>
<ellipse fill="white" stroke="white" cx="46" cy="-34" rx="29.795" ry="18"/>
<text text-anchor="middle" x="46" y="-30.3" font-family="Fangsong" font-size="14.00">奖励</text>
</g>
<!-- 反应&#45;&gt;奖励 -->
<g id="edge3" class="edge"><title>反应&#45;&gt;奖励</title>
<path fill="none" stroke="black" d="M46,-87.6966C46,-79.9827 46,-70.7125 46,-62.1124"/>
<polygon fill="black" stroke="black" points="49.5001,-62.1043 46,-52.1043 42.5001,-62.1044 49.5001,-62.1043"/>
</g>
<!-- 让它显而易见 -->
<g id="node5" class="node"><title>让它显而易见</title>
<ellipse fill="#b2dfee" stroke="#b2dfee" cx="179" cy="-250" rx="68.7879" ry="18"/>
<text text-anchor="middle" x="179" y="-246.3" font-family="Fangsong" font-size="14.00">让它显而易见</text>
</g>
<!-- 让它有吸引力 -->
<g id="node6" class="node"><title>让它有吸引力</title>
<ellipse fill="#b2dfee" stroke="#b2dfee" cx="169" cy="-178" rx="68.7879" ry="18"/>
<text text-anchor="middle" x="169" y="-174.3" font-family="Fangsong" font-size="14.00">让它有吸引力</text>
</g>
<!-- 让它显而易见&#45;&gt;让它有吸引力 -->
<g id="edge4" class="edge"><title>让它显而易见&#45;&gt;让它有吸引力</title>
<path fill="none" stroke="red" stroke-dasharray="5,2" d="M176.528,-231.697C174.978,-220.846 172.988,-206.917 171.443,-196.104"/>
</g>
<!-- 让它简便易行 -->
<g id="node7" class="node"><title>让它简便易行</title>
<ellipse fill="#b2dfee" stroke="#b2dfee" cx="169" cy="-106" rx="68.7879" ry="18"/>
<text text-anchor="middle" x="169" y="-102.3" font-family="Fangsong" font-size="14.00">让它简便易行</text>
</g>
<!-- 让它有吸引力&#45;&gt;让它简便易行 -->
<g id="edge5" class="edge"><title>让它有吸引力&#45;&gt;让它简便易行</title>
<path fill="none" stroke="red" stroke-dasharray="5,2" d="M169,-159.697C169,-148.846 169,-134.917 169,-124.104"/>
</g>
<!-- 让它令人愉悦 -->
<g id="node8" class="node"><title>让它令人愉悦</title>
<ellipse fill="#b2dfee" stroke="#b2dfee" cx="179" cy="-34" rx="68.7879" ry="18"/>
<text text-anchor="middle" x="179" y="-30.3" font-family="Fangsong" font-size="14.00">让它令人愉悦</text>
</g>
<!-- 让它简便易行&#45;&gt;让它令人愉悦 -->
<g id="edge6" class="edge"><title>让它简便易行&#45;&gt;让它令人愉悦</title>
<path fill="none" stroke="red" stroke-dasharray="5,2" d="M171.472,-87.6966C173.022,-76.8463 175.012,-62.9167 176.557,-52.1043"/>
</g>
<!-- 让它令人愉悦&#45;&gt;让它显而易见 -->
<g id="edge7" class="edge"><title>让它令人愉悦&#45;&gt;让它显而易见</title>
<path fill="none" stroke="red" stroke-dasharray="5,2" d="M209.509,-50.3165C223.683,-59.2068 239.117,-71.861 247,-88 268.067,-131.13 268.067,-152.87 247,-196 239.117,-212.139 223.683,-224.793 209.509,-233.683"/>
</g>
</g>
</svg>
